<svg id="Group" xmlns="http://www.w3.org/2000/svg" width="51.08" height="51" viewBox="0 0 51.08 51">
  <ellipse id="Oval" cx="7.697" cy="7.336" rx="7.697" ry="7.336" transform="translate(17.493 18.164)" fill="#fff"/>
  <path id="Path" d="M26.54,3.242A11.582,11.582,0,0,1,14.767,14.623,11.582,11.582,0,0,1,2.993,3.242,11.029,11.029,0,0,1,3.479,0H0V15.964a1.508,1.508,0,0,0,1.506,1.5H27.882a1.508,1.508,0,0,0,1.507-1.5V0H26.054A11.046,11.046,0,0,1,26.54,3.242Z" transform="translate(10.496 22.356)" fill="#fff"/>
  <path id="Path-2" data-name="Path" d="M1.707,7.685H5.991A1.732,1.732,0,0,0,7.7,5.936V1.749A1.732,1.732,0,0,0,5.991,0H1.707A1.733,1.733,0,0,0,0,1.749V5.936A1.732,1.732,0,0,0,1.707,7.685Z" transform="translate(32.187 10.479)" fill="#fff"/>
  <path id="Shape" d="M25.54,51A25.483,25.483,0,1,1,49.072,15.574,25.509,25.509,0,0,1,25.54,51ZM11.552,6.71A4.721,4.721,0,0,0,6.72,11.533V39.468a4.721,4.721,0,0,0,4.831,4.823H39.529a4.721,4.721,0,0,0,4.831-4.823V11.533A4.721,4.721,0,0,0,39.529,6.71Z" fill="#fff"/>
</svg>
