<svg xmlns="http://www.w3.org/2000/svg" width="16" height="16" viewBox="0 0 16 16">
  <g id="price-tag" transform="translate(16 0) rotate(180)">
    <path id="Shape" d="M-8.79,16A1.553,1.553,0,0,0-7.7,15.549L-.319,8.175A.946.946,0,0,0,0,7.493V1.616A1.621,1.621,0,0,0-.479.482,1.579,1.579,0,0,0-1.615,0H-7.5q-.033,0-.066,0a.832.832,0,0,0-.617.322L-15.561,7.7A1.5,1.5,0,0,0-16,8.777a1.567,1.567,0,0,0,.465,1.1l2.839,2.837,2.839,2.836A1.469,1.469,0,0,0-8.79,16ZM-3.621,1.938a1.668,1.668,0,0,1,1.19.493,1.683,1.683,0,0,1,.494,1.2,1.664,1.664,0,0,1-.494,1.184,1.684,1.684,0,0,1-1.194.492,1.675,1.675,0,0,1-1.192-.492,1.676,1.676,0,0,1-.5-1.2,1.667,1.667,0,0,1,.5-1.188A1.687,1.687,0,0,1-3.621,1.938Z" transform="rotate(-180)" fill="#414156"/>
  </g>
</svg>
