<svg id="star" xmlns="http://www.w3.org/2000/svg" width="16" height="16" viewBox="0 0 16 16">
  <path id="Path" d="M15.653,7.251a1.227,1.227,0,0,0,.29-1.228,1.155,1.155,0,0,0-.927-.815L11.142,4.62a.508.508,0,0,1-.381-.289L9.029.667a1.127,1.127,0,0,0-2.058,0L5.239,4.332a.509.509,0,0,1-.382.289L.984,5.208a1.155,1.155,0,0,0-.927.815,1.227,1.227,0,0,0,.29,1.228L3.15,10.1a.544.544,0,0,1,.146.468L2.635,14.6a1.209,1.209,0,0,0,.25.971,1.126,1.126,0,0,0,1.414.291l3.465-1.9a.5.5,0,0,1,.472,0l3.465,1.9a1.1,1.1,0,0,0,.534.139,1.132,1.132,0,0,0,.88-.431,1.209,1.209,0,0,0,.25-.971L12.7,10.571a.544.544,0,0,1,.146-.468Z" transform="translate(0)" fill="#414156"/>
</svg>
