<svg id="Group_2" data-name="Group 2" xmlns="http://www.w3.org/2000/svg" width="51.08" height="51" viewBox="0 0 51.08 51">
  <path id="Path" d="M25.54,0A25.5,25.5,0,1,1,0,25.5,25.52,25.52,0,0,1,25.54,0Z" transform="translate(0)" fill="#fff"/>
  <path id="Path-2" data-name="Path" d="M30.088,2.81a12.6,12.6,0,0,1-3.546.946A6.045,6.045,0,0,0,29.257.436a12.507,12.507,0,0,1-3.922,1.456A6.25,6.25,0,0,0,20.83,0a6.085,6.085,0,0,0-6.171,5.995,5.825,5.825,0,0,0,.16,1.368A17.7,17.7,0,0,1,2.1,1.1,5.829,5.829,0,0,0,1.26,4.111,5.948,5.948,0,0,0,4.006,9.1a6.272,6.272,0,0,1-2.8-.751v.076A6.047,6.047,0,0,0,6.16,14.307a6.378,6.378,0,0,1-1.626.211,6.219,6.219,0,0,1-1.16-.108,6.157,6.157,0,0,0,5.768,4.165,12.612,12.612,0,0,1-7.667,2.567A12.967,12.967,0,0,1,0,21.058a17.851,17.851,0,0,0,9.464,2.7A17.185,17.185,0,0,0,27.028,6.689l-.017-.777A12.325,12.325,0,0,0,30.088,2.81Z" transform="translate(11.196 13.973)" fill="#414256"/>
</svg>
