<svg xmlns="http://www.w3.org/2000/svg" width="51" height="51" viewBox="0 0 51 51">
  <path id="Shape" d="M25.5,51A25.507,25.507,0,0,1,15.574,2,25.507,25.507,0,0,1,35.426,49,25.34,25.34,0,0,1,25.5,51ZM11.984,18.771c1.232,0,2.4,1.962,3.477,5.83q.906,3.325,1.812,6.648l1.1,4.037c1.447,3.868,3.243,5.829,5.337,5.829a9.689,9.689,0,0,0,5.662-2.393,39.473,39.473,0,0,0,6.793-7.178c4.726-6.084,7.2-10.941,7.361-14.434.119-2.619-.38-4.549-1.482-5.737a5.117,5.117,0,0,0-3.761-1.483c-.133,0-.267-.006-.4-.006-4.764,0-8.051,2.854-9.768,8.483a6.751,6.751,0,0,1,2.672-.592,2.452,2.452,0,0,1,1.907.682,3.045,3.045,0,0,1,.523,2.411c-.108,1.24-.926,3.074-2.429,5.451s-2.652,3.581-3.4,3.581c-.968,0-1.867-1.857-2.672-5.52-.269-1.065-.746-3.772-1.459-8.275-.606-3.84-2.181-5.787-4.679-5.787-.164,0-.334.008-.506.025-1.183.108-2.983,1.2-5.35,3.242-1.669,1.515-3.441,3.1-5.266,4.7l1.7,2.189A11.275,11.275,0,0,1,11.984,18.771Z" fill="#fff"/>
</svg>
