<svg id="Group_3" data-name="Group 3" xmlns="http://www.w3.org/2000/svg" width="51.08" height="51" viewBox="0 0 51.08 51">
  <path id="Path" d="M0,1.77H2.124V12.575h2.01V1.77H6.3V0H0Z" transform="translate(13.295 25.849)" fill="#fff"/>
  <path id="Shape" d="M3.395,12.576a2.263,2.263,0,0,1-1.725-1.027v.9H0V0H1.669V4.065A2.268,2.268,0,0,1,3.395,3.06,1.323,1.323,0,0,1,4.729,4.107,7.122,7.122,0,0,1,4.9,5.971V9.664a7.456,7.456,0,0,1-.169,1.868A1.323,1.323,0,0,1,3.395,12.576Zm-.894-8a1.2,1.2,0,0,0-.833.41v5.652a1.191,1.191,0,0,0,.833.413c.482,0,.726-.421.726-1.251V5.837C3.227,5,2.983,4.572,2.5,4.572Z" transform="translate(25.89 25.849)" fill="#fff"/>
  <path id="Path-2" data-name="Path" d="M3.194,7.373c-.378.548-.735.818-1.077.818-.227,0-.357-.137-.4-.409A5.541,5.541,0,0,1,1.7,7.1V0H0V7.628A5.042,5.042,0,0,0,.15,9.063a1.046,1.046,0,0,0,1.1.718A2.713,2.713,0,0,0,3.194,8.6V9.648H4.9V0h-1.7V7.373Z" transform="translate(19.592 28.644)" fill="#fff"/>
  <path id="Path-3" data-name="Path" d="M.7,6.986c.473,0,.7-.463.7-1.389V1.387C1.4.461,1.173,0,.7,0S0,.462,0,1.387V5.6C0,6.523.227,6.986.7,6.986Z" transform="translate(23.791 13.274)" fill="#fff"/>
  <path id="Shape-2" data-name="Shape" d="M25.54,51A25.483,25.483,0,1,1,49.072,15.574,25.509,25.509,0,0,1,25.54,51Zm0-8.649H26.3a89.473,89.473,0,0,0,9.913-.394,3.6,3.6,0,0,0,3.08-2.8,30.168,30.168,0,0,0,.5-6.726V32.4a30.216,30.216,0,0,0-.492-6.689,3.605,3.605,0,0,0-3.081-2.8,90.878,90.878,0,0,0-10.036-.394H24.91a90.875,90.875,0,0,0-10.036.394,3.6,3.6,0,0,0-3.079,2.8,30.6,30.6,0,0,0-.5,6.725,30.277,30.277,0,0,0,.5,6.726,3.6,3.6,0,0,0,3.079,2.8,89.462,89.462,0,0,0,9.913.394Zm2.842-30.424V19.51a4.9,4.9,0,0,0,.154,1.426,1.069,1.069,0,0,0,1.121.712,2.811,2.811,0,0,0,1.988-1.177v1.046h1.741V11.927H31.644v7.33c-.388.548-.748.814-1.1.814-.232,0-.37-.137-.409-.407a4.1,4.1,0,0,1-.021-.676V11.927Zm-4-.116a2.38,2.38,0,0,0-2.027.984,3.709,3.709,0,0,0-.545,2.259v3.358a3.68,3.68,0,0,0,.545,2.255,2.587,2.587,0,0,0,4.056,0,3.713,3.713,0,0,0,.539-2.255V15.053a3.738,3.738,0,0,0-.539-2.259A2.381,2.381,0,0,0,24.379,11.811Zm-8.642-1.385c.206.593.419,1.206.624,1.808a31.59,31.59,0,0,1,1.18,4.072v5.211h1.93V16.305l2.322-7.657H19.841L18.524,13.7l-1.37-5.054h-2.03c.2.589.409,1.19.611,1.77l0,.008Z" transform="translate(0)" fill="#fff"/>
  <path id="Shape-3" data-name="Shape" d="M2.5,9.781A2.286,2.286,0,0,1,.526,8.8,3.849,3.849,0,0,1,0,6.563V3.223A3.869,3.869,0,0,1,.5.977,2.293,2.293,0,0,1,2.463,0,2.23,2.23,0,0,1,4.392.976,3.9,3.9,0,0,1,4.9,3.222V5.2H1.627V6.888c0,.89.273,1.322.836,1.322.4,0,.637-.226.732-.692.014-.093.035-.481.035-1.17H4.9V6.6c0,.536-.018.927-.034,1.113a2.547,2.547,0,0,1-.382,1.035A2.223,2.223,0,0,1,2.5,9.781ZM2.449,1.554c-.545,0-.821.445-.821,1.323v.882H3.263V2.877C3.263,2,2.989,1.554,2.449,1.554Z" transform="translate(32.887 28.644)" fill="#fff"/>
</svg>
